<?xml version="1.0" standalone="no"?>
<!DOCTYPE svg PUBLIC "-//W3C//DTD SVG 20010904//EN"
 "http://www.w3.org/TR/2001/REC-SVG-20010904/DTD/svg10.dtd">
<svg version="1.0" xmlns="http://www.w3.org/2000/svg"
 width="200.000000pt" height="200.000000pt" viewBox="0 0 200.000000 200.000000"
 preserveAspectRatio="xMidYMid meet">

<g transform="translate(0.000000,200.000000) scale(0.100000,-0.100000)"
fill="#000000" stroke="none">
<path d="M1016 1213 l175 -3 -3 -120 c-2 -65 1 -116 5 -111 4 4 6 59 5 122
l-3 114 -178 0 -177 1 176 -3z"/>
<path d="M1026 1135 c-9 -26 -7 -32 5 -12 6 10 9 21 6 23 -2 3 -7 -2 -11 -11z"/>
<path d="M907 1114 c-23 -12 -30 -34 -11 -34 3 0 2 5 -1 10 -3 6 -2 10 2 10 5
0 18 7 29 15 25 19 17 18 -19 -1z"/>
<path d="M1123 1106 c18 -14 17 -15 -12 -31 -17 -8 -31 -18 -31 -21 0 -7 58
24 65 35 3 6 -5 15 -17 21 -21 10 -22 10 -5 -4z"/>
<path d="M1006 1085 c-9 -26 -7 -32 5 -12 6 10 9 21 6 23 -2 3 -7 -2 -11 -11z"/>
<path d="M924 1066 c11 -9 24 -16 30 -16 12 0 7 5 -24 19 -24 11 -24 11 -6 -3z"/>
<path d="M982 940 c0 -19 2 -27 5 -17 2 9 2 25 0 35 -3 9 -5 1 -5 -18z"/>
<path d="M1042 940 c0 -19 2 -27 5 -17 2 9 2 25 0 35 -3 9 -5 1 -5 -18z"/>
<path d="M750 822 c0 -4 19 -6 43 -4 70 5 76 10 15 11 -32 0 -58 -2 -58 -7z"/>
<path d="M948 770 l4 -60 33 0 c33 0 65 21 65 43 0 6 -7 1 -16 -11 -10 -14
-25 -22 -45 -22 -28 0 -29 1 -29 50 0 49 1 50 29 50 20 0 35 -8 45 -22 9 -12
16 -17 16 -11 0 23 -32 43 -68 43 l-37 0 3 -60z"/>
<path d="M854 766 c-12 -31 0 -51 31 -51 24 0 31 5 33 24 2 13 0 27 -5 32 -6
6 -8 -3 -5 -22 4 -28 2 -30 -19 -27 -19 2 -24 9 -24 31 1 30 -3 34 -11 13z"/>
<path d="M1130 765 c19 -23 4 -48 -25 -43 -13 3 -22 1 -19 -3 8 -14 40 -10 54
6 13 16 5 55 -12 55 -6 0 -6 -6 2 -15z"/>
<path d="M1195 771 c-3 -5 -2 -12 3 -15 5 -3 9 1 9 9 0 17 -3 19 -12 6z"/>
<path d="M1228 743 c6 -2 12 -9 12 -14 0 -14 -38 -11 -43 4 -3 7 -6 5 -6 -5
-1 -13 7 -18 29 -18 23 0 30 4 30 20 0 13 -6 20 -17 19 -11 0 -13 -3 -5 -6z"/>
</g>
</svg>
